# xmcd CD database file
#
# Track frame offsets:
#        150
#        15456
#        26845
#        38563
#        56426
#        70511
#        81907
#        96881
#        112676
#        132797
#        148700
#        168819
#        188323
#        199397
#
# Disc length: 2950 seconds
#
# Revision: 0
# Processed by: cddbd v1.5.2PL0 Copyright (c) Steve Scherf et al.
# Submitted via: CUERipper 2.1.4
#
DISCID=a80b840e
DTITLE=Volupsije - Pvrvní Cédečko
DYEAR=1996
DGENRE=Country
TTITLE0=Pán nám lásku nedopřál
TTITLE1=Ráno v Amarillu
TTITLE2=Tanec s vlky
TTITLE3=Soudce Roy Bean
TTITLE4=Ťuk, 'tuk
TTITLE5=Memphis
TTITLE6=Life's highway
TTITLE7=Sekera
TTITLE8=Roky
TTITLE9=Unbreakable heart
TTITLE10=Fankie and Johnny
TTITLE11=Nebožtík Tussie
TTITLE12=A fool such as I
TTITLE13=Hej starej, zapřahej
EXTD=
EXTT0=
EXTT1=
EXTT2=
EXTT3=
EXTT4=
EXTT5=
EXTT6=
EXTT7=
EXTT8=
EXTT9=
EXTT10=
EXTT11=
EXTT12=
EXTT13=
PLAYORDER=
